<?xml version="1.0" encoding="UTF-8"?>
<svg version="1.1" viewBox="0 0 2048 2048" width="1280" height="1280" xmlns="http://www.w3.org/2000/svg">
<path transform="translate(941,641)" d="m0 0h807l29 3 17 3 24 6 26 9 18 8 25 13 22 14 17 13 13 11 13 12 10 10 9 11 10 12 12 17 13 21 12 23 11 28 7 23 6 28 3 24 1 14v796l-2 27-6 33-7 26-9 24-12 25-10 18-13 19-10 13-9 11-11 12-16 16-8 7-14 11-17 12-18 11-23 12-27 11-22 7-34 7-22 3-13 1h-802l-33-4-25-5-25-7-26-10-19-9-27-16-17-12-16-13-10-9-3-2v-2l-4-2-8-8-7-8-8-9-13-17-10-15-10-17-8-16-8-17-9-25-5-17-5-24-3-22-1-12v-814l4-31 7-30 10-30 8-19 12-22 9-15 8-12 13-17 12-14 24-24 14-11 13-10 15-10 19-11 15-8 26-11 19-6 24-6 24-4zm12 127-22 2-24 5-17 6-18 8-17 10-16 12-10 9-8 7-7 8-13 17-10 17-10 21-7 22-4 19-2 25v777l3 28 5 21 8 22 12 23 12 17 11 12 7 8 12 11 13 10 15 9 15 8 21 8 20 5 24 3 16 1h765l25-2 21-4 19-6 19-8 15-8 13-9 14-11 20-20 13-17 9-15 8-16 7-19 5-21 2-17 1-16v-775l-2-24-3-17-6-20-9-21-11-19-13-17-11-12-15-14-18-13-18-10-21-9-20-6-14-3-27-2z" fill="#232323"/>
<path transform="translate(1041,1)" d="m0 0h32l25 2 30 5 24 6 27 9 20 9 23 12 19 12 16 12 11 9 14 12 16 16 7 8 12 15 11 16 11 18 13 25 10 25 8 25 14 51 10 38 22 82 12 44 11 42 4 14v4l-2 1h-129l-4-10-26-98-25-93-12-44-6-18-12-25-11-17-8-10-11-12-14-13-15-11-15-9-21-10-18-6-23-5-14-2-15-1-24 2-26 5-204 55-144 38-148 40-93 25-154 41-20 7-18 8-19 12-14 11-12 11-9 9-10 13-10 15-11 21-6 15-6 22-3 19-1 12v19l3 25 7 30 16 59 10 37 54 202 24 90 20 74 25 93 24 90 21 78 9 27 9 19 11 17 11 14 9 10 9 9 14 11 15 10 17 9 26 10 21 5 27 4 1 1v127l-27-2-32-5-20-5-33-11-18-8-16-8-19-11-16-11-17-13-13-12-12-11-12-13-9-11-12-16-10-15-9-16-8-16-10-23-10-31-29-109-61-227-22-82-29-109-25-93-22-82-11-42-4-18-4-24-2-25v-24l2-24 5-29 7-28 9-26 11-24 9-17 12-19 12-16 8-10 9-10 7-8 11-11 8-7 13-11 18-13 19-12 27-14 25-10 29-9 400-107 317-85 36-9 30-5z" fill="#222"/>
<path transform="translate(1340,896)" d="m0 0 16 1 13 4 12 7 10 9 9 13 5 12 2 9v329h328l14 3 15 8 10 9 9 13 5 11 2 8v22l-4 14-6 11-11 12-7 6-15 7-7 2-12 1h-321v324l-2 13-5 13-10 14-7 6-13 8-12 4-6 1h-19l-12-3-12-6-11-9-7-8-8-15-3-10-2-332h-321l-15-2-16-7-10-8-8-9-6-10-4-11-2-8v-16l4-16 6-12 12-13 9-7 13-6 8-2 330-1 1-200 1-131 5-15 7-12 12-12 11-7 15-5z" fill="#222"/>
</svg>
